<mxfile host="app.diagrams.net" modified="2020-12-02T09:24:31.579Z" agent="5.0 (Windows)" etag="JFV8oO_3towCx-gcSmW7" version="13.9.8" type="github">
  <diagram id="U8gXAKNHkGwuQdSAH4Lm" name="Page-1">
    <mxGraphModel dx="628" dy="354" grid="1" gridSize="10" guides="1" tooltips="1" connect="1" arrows="1" fold="1" page="1" pageScale="1" pageWidth="827" pageHeight="1169" math="0" shadow="0">
      <root>
        <mxCell id="0" />
        <mxCell id="1" parent="0" />
        <mxCell id="fFwwaKKDndFWqP_F9F3J-1" value="Recipe" style="rounded=0;whiteSpace=wrap;html=1;" vertex="1" parent="1">
          <mxGeometry x="520" y="160" width="120" height="60" as="geometry" />
        </mxCell>
        <mxCell id="fFwwaKKDndFWqP_F9F3J-2" value="User" style="rounded=0;whiteSpace=wrap;html=1;" vertex="1" parent="1">
          <mxGeometry x="170" y="160" width="120" height="60" as="geometry" />
        </mxCell>
        <mxCell id="fFwwaKKDndFWqP_F9F3J-3" value="" style="shape=flexArrow;endArrow=classic;html=1;entryX=0.5;entryY=1;entryDx=0;entryDy=0;" edge="1" parent="1" target="fFwwaKKDndFWqP_F9F3J-2">
          <mxGeometry width="50" height="50" relative="1" as="geometry">
            <mxPoint x="230" y="280" as="sourcePoint" />
            <mxPoint x="250" y="230" as="targetPoint" />
            <Array as="points">
              <mxPoint x="230" y="260" />
            </Array>
          </mxGeometry>
        </mxCell>
        <mxCell id="fFwwaKKDndFWqP_F9F3J-4" value="Normal User" style="rounded=0;whiteSpace=wrap;html=1;" vertex="1" parent="1">
          <mxGeometry x="30" y="280" width="120" height="60" as="geometry" />
        </mxCell>
        <mxCell id="fFwwaKKDndFWqP_F9F3J-5" value="Paella" style="ellipse;whiteSpace=wrap;html=1;aspect=fixed;fillColor=#f8cecc;strokeColor=#b85450;" vertex="1" parent="1">
          <mxGeometry x="324" y="470" width="80" height="80" as="geometry" />
        </mxCell>
        <mxCell id="fFwwaKKDndFWqP_F9F3J-20" style="edgeStyle=orthogonalEdgeStyle;curved=1;orthogonalLoop=1;jettySize=auto;html=1;exitX=0.5;exitY=0;exitDx=0;exitDy=0;entryX=0;entryY=0.5;entryDx=0;entryDy=0;fillColor=#d80073;strokeColor=#A50040;" edge="1" parent="1" source="fFwwaKKDndFWqP_F9F3J-6" target="fFwwaKKDndFWqP_F9F3J-5">
          <mxGeometry relative="1" as="geometry" />
        </mxCell>
        <mxCell id="fFwwaKKDndFWqP_F9F3J-21" value="Add" style="edgeLabel;html=1;align=center;verticalAlign=middle;resizable=0;points=[];" vertex="1" connectable="0" parent="fFwwaKKDndFWqP_F9F3J-20">
          <mxGeometry x="-0.0132" y="-17" relative="1" as="geometry">
            <mxPoint as="offset" />
          </mxGeometry>
        </mxCell>
        <mxCell id="fFwwaKKDndFWqP_F9F3J-6" value="Pietro Ducange" style="ellipse;whiteSpace=wrap;html=1;aspect=fixed;fillColor=#dae8fc;strokeColor=#6c8ebf;" vertex="1" parent="1">
          <mxGeometry x="160" y="575" width="80" height="80" as="geometry" />
        </mxCell>
        <mxCell id="fFwwaKKDndFWqP_F9F3J-11" style="edgeStyle=orthogonalEdgeStyle;curved=1;orthogonalLoop=1;jettySize=auto;html=1;exitX=0;exitY=0.5;exitDx=0;exitDy=0;entryX=1;entryY=0.5;entryDx=0;entryDy=0;fillColor=#008a00;strokeColor=#005700;" edge="1" parent="1" source="fFwwaKKDndFWqP_F9F3J-9" target="fFwwaKKDndFWqP_F9F3J-6">
          <mxGeometry relative="1" as="geometry" />
        </mxCell>
        <mxCell id="fFwwaKKDndFWqP_F9F3J-12" value="Follow" style="edgeLabel;html=1;align=center;verticalAlign=middle;resizable=0;points=[];" vertex="1" connectable="0" parent="fFwwaKKDndFWqP_F9F3J-11">
          <mxGeometry x="-0.2403" y="-5" relative="1" as="geometry">
            <mxPoint as="offset" />
          </mxGeometry>
        </mxCell>
        <mxCell id="fFwwaKKDndFWqP_F9F3J-14" style="edgeStyle=orthogonalEdgeStyle;curved=1;orthogonalLoop=1;jettySize=auto;html=1;exitX=1;exitY=0;exitDx=0;exitDy=0;entryX=0.5;entryY=1;entryDx=0;entryDy=0;fillColor=#a20025;strokeColor=#6F0000;" edge="1" parent="1" source="fFwwaKKDndFWqP_F9F3J-9" target="fFwwaKKDndFWqP_F9F3J-5">
          <mxGeometry relative="1" as="geometry" />
        </mxCell>
        <mxCell id="fFwwaKKDndFWqP_F9F3J-15" value="Comment" style="edgeLabel;html=1;align=center;verticalAlign=middle;resizable=0;points=[];" vertex="1" connectable="0" parent="fFwwaKKDndFWqP_F9F3J-14">
          <mxGeometry x="-0.3508" y="6" relative="1" as="geometry">
            <mxPoint as="offset" />
          </mxGeometry>
        </mxCell>
        <mxCell id="fFwwaKKDndFWqP_F9F3J-18" style="edgeStyle=orthogonalEdgeStyle;curved=1;orthogonalLoop=1;jettySize=auto;html=1;exitX=1;exitY=0.5;exitDx=0;exitDy=0;entryX=1;entryY=0.5;entryDx=0;entryDy=0;fillColor=#e3c800;strokeColor=#B09500;" edge="1" parent="1" source="fFwwaKKDndFWqP_F9F3J-9" target="fFwwaKKDndFWqP_F9F3J-5">
          <mxGeometry relative="1" as="geometry" />
        </mxCell>
        <mxCell id="fFwwaKKDndFWqP_F9F3J-19" value="Like" style="edgeLabel;html=1;align=center;verticalAlign=middle;resizable=0;points=[];" vertex="1" connectable="0" parent="fFwwaKKDndFWqP_F9F3J-18">
          <mxGeometry x="-0.3328" y="-2" relative="1" as="geometry">
            <mxPoint as="offset" />
          </mxGeometry>
        </mxCell>
        <mxCell id="fFwwaKKDndFWqP_F9F3J-9" value="Gionatan Gallo" style="ellipse;whiteSpace=wrap;html=1;aspect=fixed;fillColor=#dae8fc;strokeColor=#6c8ebf;" vertex="1" parent="1">
          <mxGeometry x="324" y="620" width="80" height="80" as="geometry" />
        </mxCell>
      </root>
    </mxGraphModel>
  </diagram>
</mxfile>
